<svg width="156" height="163" viewBox="0 0 156 163" fill="none" xmlns="http://www.w3.org/2000/svg">
<path d="M76 7C114.422 7 145 36.6327 145 72.5C145 108.367 114.422 138 76 138C37.5777 138 7 108.367 7 72.5C7 36.6327 37.5777 7 76 7Z" stroke="#333333" stroke-width="14"/>
<path d="M140.991 129.637C142.787 130.322 143.715 132.329 142.909 134.074C139.815 140.773 135.011 146.416 129.146 150.173C123.647 153.697 117.52 155.368 111.535 155.035C109.242 154.907 107.833 152.637 108.373 150.404V150.404C108.894 148.244 111.052 146.939 113.273 146.979C117.63 147.059 122.054 145.77 126.048 143.211C130.318 140.475 133.857 136.44 136.242 131.647C137.118 129.888 139.155 128.936 140.991 129.637V129.637Z" fill="#EB2512"/>
</svg>